<svg class="max-w-full mx-auto" width="309px" height="24px" viewBox="0 0 309 24" version="1.1" xmlns="http://www.w3.org/2000/svg" xmlns:xlink="http://www.w3.org/1999/xlink"><defs><polygon id="logo-path-1" points="0.475435391 0.281911997 21.0910288 0.281911997 21.0910288 22.7557721 0.475435391 22.7557721"></polygon></defs><g id="Page-1" stroke="none" stroke-width="1" fill="none" fill-rule="evenodd"><g id="main-room-opt-1" transform="translate(-686.000000, -81.000000)"><g id="ralphclubs-logo" transform="translate(686.000000, 81.000000)"><path d="M19.7454617,23.3749408 L16.7186963,23.3749408 L11.5333959,14.0259367 L2.63308313,14.0259367 L2.63308313,23.3749408 L0.000506995884,23.3749408 L0.000506995884,0.899813232 L11.210186,0.899813232 C14.5943835,0.899813232 20.2841449,1.53102311 20.2841449,7.34373093 C20.2841449,12.196949 17.1686551,13.7546939 14.5310091,14.0259367 L19.7454617,23.3749408 Z M12.2812148,11.3882906 C15.2471407,11.3882906 17.6477663,11.0283235 17.6477663,7.37288319 C17.6477663,4.58567331 15.1888362,3.53872681 12.7615934,3.53872681 L2.63308313,3.53872681 L2.63308313,11.3882906 L12.2812148,11.3882906 Z" id="Fill-1" fill="#FFFFFF"></path><path d="M50.6900823,23.3749408 L47.7520412,23.3749408 L44.0966008,15.6724058 L33.3089959,15.6724058 L29.7739671,23.3749408 L26.8371934,23.3749408 L37.5360741,0.899813232 L40.1737202,0.899813232 L50.6900823,23.3749408 Z M38.8529959,4.1065622 L34.6284527,13.0372947 L42.9279753,13.0372947 L38.8529959,4.1065622 Z" id="Fill-3" fill="#FFFFFF"></path><polygon id="Fill-5" fill="#FFFFFF" points="75.9420263 23.3749408 59.1934173 23.3749408 59.1934173 0.899813232 61.8297959 0.899813232 61.8297959 20.7372947 75.9420263 20.7372947"></polygon><path d="M86.5720823,23.3743071 L83.9369712,23.3743071 L83.9369712,0.900446977 L96.339358,0.900446977 C99.1291029,0.900446977 103.409416,2.00823299 103.409416,7.34436467 C103.409416,12.107591 100.295193,13.7540601 96.339358,13.7540601 L86.5720823,13.7540601 L86.5720823,23.3743071 Z M96.339358,11.1202165 C98.8591276,11.1202165 100.77684,10.3394429 100.77684,7.34436467 C100.77684,4.19845521 98.6183045,3.53682558 96.339358,3.53682558 L86.5720823,3.53682558 L86.5720823,11.1202165 L96.339358,11.1202165 Z" id="Fill-7" fill="#FFFFFF"></path><polygon id="Fill-9" fill="#FFFFFF" points="134.016377 23.3749408 131.379998 23.3749408 131.379998 12.944768 116.936953 12.944768 116.936953 23.3749408 114.300574 23.3749408 114.300574 0.899813232 116.936953 0.899813232 116.936953 10.3109243 131.379998 10.3109243 131.379998 0.899813232 134.016377 0.899813232"></polygon><path d="M145.007921,8.42185768 C145.544069,7.97189883 147.703872,6.32289471 147.703872,4.82725685 C147.703872,3.95775891 146.503559,4.28730624 145.635328,3.95775891 C145.125798,3.74735562 144.527542,3.29866426 144.527542,2.18961076 C144.527542,1.23265603 145.305781,0.421462615 146.264003,0.421462615 C147.493468,0.421462615 148.900382,1.55966838 148.900382,3.62821159 C148.900382,6.77538854 145.573221,8.63099348 145.214522,8.75267249 L145.007921,8.42185768 Z" id="Fill-11" fill="#FFFFFF"></path><path d="M167.9415,10.1900058 C172.138158,10.1900058 176.389319,11.7173309 176.389319,16.692228 C176.389319,21.5771334 171.176133,23.8535449 165.665088,23.8535449 C158.832051,23.8535449 155.748249,20.4363927 154.430059,19.0320141 L156.317351,17.1700717 C157.692578,18.4008042 159.941105,21.2171663 165.752545,21.2171663 C170.818701,21.2171663 173.75294,19.2994544 173.75294,16.692228 C173.75294,13.8745984 170.907426,12.8276519 168.661434,12.8276519 L163.92736,12.8276519 C159.583672,12.8276519 156.076528,11.3890511 156.076528,7.19366015 C156.076528,4.07690294 158.891623,0.421462615 165.7855,0.421462615 C170.937845,0.421462615 174.057137,2.87785768 175.192808,3.71820336 L173.543804,5.78547908 C171.92522,4.70557784 169.773022,3.05910871 165.723393,3.05910871 C160.659771,3.05910871 158.715442,5.42677949 158.715442,7.19366015 C158.715442,10.1900058 162.517911,10.1900058 165.213862,10.1900058 L167.9415,10.1900058 Z" id="Fill-13" fill="#FFFFFF"></path><path d="M220.96934,19.3880519 C219.684105,20.5883647 216.775216,23.8546857 210.183002,23.8546857 C204.100319,23.8546857 197.715974,19.9001178 197.715974,12.1392783 C197.715974,4.37843875 204.100319,0.421335866 209.795151,0.421335866 C215.998245,0.421335866 219.472435,3.74849636 220.638525,4.88796961 L218.751233,6.71442229 C217.524303,5.6649408 214.407546,3.05771447 209.852188,3.05771447 C204.100319,3.05771447 200.351085,7.46477619 200.351085,12.0771713 C200.351085,16.6933688 204.100319,21.2183071 210.302147,21.2183071 C215.543216,21.2183071 218.121291,18.3981425 219.17204,17.3816157 L220.96934,19.3880519 Z" id="Fill-15" fill="#FFFFFF"></path><polygon id="Fill-17" fill="#FFFFFF" points="247.691826 23.3749408 230.939414 23.3749408 230.939414 0.899813232 233.579595 0.899813232 233.579595 20.7372947 247.691826 20.7372947"></polygon><path d="M275.430584,14.6553721 C275.430584,20.4085079 272.402551,23.8535449 265.512477,23.8535449 C258.409465,23.8535449 255.595638,20.4085079 255.595638,14.6553721 L255.595638,0.900573726 L258.232016,0.900573726 L258.232016,14.6553721 C258.232016,19.4185984 260.746716,21.2158988 265.512477,21.2158988 C270.276971,21.2158988 272.795473,19.4185984 272.795473,14.6553721 L272.795473,0.900573726 L275.430584,0.900573726 L275.430584,14.6553721 Z" id="Fill-19" fill="#FFFFFF"></path><g id="Group-23" transform="translate(286.452675, 0.618535)"><mask id="logo-mask-2" fill="white"><use xlink:href="#logo-path-1"></use></mask><g id="Clip-22"></g><path d="M13.0033037,0.281911997 C16.537065,0.281911997 20.0442091,2.05006015 20.0442091,6.42416714 C20.0442091,8.94140171 18.7843243,10.5295663 17.8856741,11.0099449 C19.2951226,11.7881836 21.0911556,13.7654676 21.0911556,16.4348009 C21.0911556,21.6479861 16.8057728,22.7557721 13.0033037,22.7557721 L0.475435391,22.7557721 L0.475435391,0.281911997 L13.0033037,0.281911997 Z M13.0033037,9.93004368 C15.8779704,9.93004368 17.406563,8.4622906 17.406563,6.30375562 C17.406563,4.44815068 15.9983819,2.92082558 13.0033037,2.92082558 L3.11561646,2.92082558 L3.11561646,9.93004368 L13.0033037,9.93004368 Z M13.0033037,20.118126 C16.296242,20.118126 18.454777,19.2803153 18.454777,16.5514099 C18.454777,13.9150313 16.358349,12.5664223 13.0033037,12.5664223 L3.11561646,12.5664223 L3.11561646,20.118126 L13.0033037,20.118126 Z" id="Fill-21" fill="#FFFFFF" mask="url(#logo-mask-2)"></path></g></g></g></g></svg>