<svg width="33" height="28" viewBox="0 0 33 28" fill="none" xmlns="http://www.w3.org/2000/svg">
<path d="M20.3915 13.7105L10.6958 4.0148L1.00008 13.7105L10.6958 23.4062L20.3915 13.7105Z" stroke="white" stroke-miterlimit="10"/>
<path d="M32.0583 13.7065L22.3625 4.01077L12.6668 13.7065L22.3625 23.4022L32.0583 13.7065Z" stroke="white" stroke-miterlimit="10"/>
<path d="M29.3055 13.7735L16.532 1L3.75844 13.7735L16.532 26.5471L29.3055 13.7735Z" fill="black" stroke="white" stroke-miterlimit="10"/>
<mask id="mask0_17_2983" style="mask-type:luminance" maskUnits="userSpaceOnUse" x="12" y="10" width="9" height="8">
<path d="M20.8663 10.1855H12.1968V17.3603H20.8663V10.1855Z" fill="white"/>
</mask>
<g mask="url(#mask0_17_2983)">
<path d="M12.6273 15.4112C12.3882 15.4112 12.1929 15.2158 12.1929 14.9767V12.6489C12.1929 12.4097 12.3882 12.2144 12.6273 12.2144C12.8665 12.2144 13.0618 12.4097 13.0618 12.6489V14.9767C13.0618 15.2158 12.8665 15.4112 12.6273 15.4112Z" fill="white"/>
<path d="M14.1818 16.3479C13.9426 16.3479 13.7473 16.1525 13.7473 15.9134V11.7082C13.7473 11.469 13.9426 11.2737 14.1818 11.2737C14.4209 11.2737 14.6163 11.469 14.6163 11.7082V15.9134C14.6163 16.1525 14.4209 16.3479 14.1818 16.3479Z" fill="white"/>
<path d="M17.2951 15.4112C17.0559 15.4112 16.8606 15.2158 16.8606 14.9767V12.6489C16.8606 12.4097 17.0559 12.2144 17.2951 12.2144C17.5342 12.2144 17.7295 12.4097 17.7295 12.6489V14.9767C17.7295 15.2158 17.5342 15.4112 17.2951 15.4112Z" fill="white"/>
</g>
<mask id="mask1_17_2983" style="mask-type:luminance" maskUnits="userSpaceOnUse" x="19" y="12" width="2" height="4">
<path d="M20.8425 12.2104H19.9775V15.4111H20.8425V12.2104Z" fill="white"/>
</mask>
<g mask="url(#mask1_17_2983)">
<path d="M20.4079 15.4113C20.1687 15.4113 19.9734 15.216 19.9734 14.9768V12.649C19.9734 12.4098 20.1687 12.2145 20.4079 12.2145C20.647 12.2145 20.8423 12.4098 20.8423 12.649V14.9768C20.8423 15.216 20.647 15.4113 20.4079 15.4113Z" fill="white"/>
</g>
<mask id="mask2_17_2983" style="mask-type:luminance" maskUnits="userSpaceOnUse" x="12" y="10" width="9" height="8">
<path d="M20.8663 10.1855H12.1968V17.3603H20.8663V10.1855Z" fill="white"/>
</mask>
<g mask="url(#mask2_17_2983)">
<path d="M18.8534 16.3479C18.6143 16.3479 18.4189 16.1525 18.4189 15.9134V11.7082C18.4189 11.469 18.6143 11.2737 18.8534 11.2737C19.0926 11.2737 19.2879 11.469 19.2879 11.7082V15.9134C19.2879 16.1525 19.0926 16.3479 18.8534 16.3479Z" fill="white"/>
</g>
<mask id="mask3_17_2983" style="mask-type:luminance" maskUnits="userSpaceOnUse" x="15" y="10" width="2" height="8">
<path d="M16.1749 10.1895H15.302V17.3643H16.1749V10.1895Z" fill="white"/>
</mask>
<g mask="url(#mask3_17_2983)">
<path d="M15.7404 17.436C15.5012 17.436 15.3059 17.2407 15.3059 17.0015V10.62C15.3059 10.3808 15.5012 10.1855 15.7404 10.1855C15.9795 10.1855 16.1749 10.3808 16.1749 10.62V17.0015C16.1749 17.2407 15.9795 17.436 15.7404 17.436Z" fill="white"/>
</g>
</svg>
